<svg width="406" height="135" viewBox="0 0 406 135" fill="none" xmlns="http://www.w3.org/2000/svg">
<g clip-path="url(#clip0_2021_35)">
<path fill-rule="evenodd" clip-rule="evenodd" d="M47.3018 27.4479C43.7839 27.5807 40.2724 27.7134 36.307 29.0286C31.8778 30.536 27.8216 32.9764 24.4107 36.1861C20.9055 39.5372 18.327 43.7735 15.8305 48.4588C13.3339 53.144 10.9257 58.411 8.58046 64.032C6.23524 69.653 3.94675 75.6471 2.4211 79.934C0.895447 84.2209 0.132622 86.788 0.0191442 89.8546C-0.130175 93.4558 0.695473 97.0303 2.40848 100.199C4.60041 104.265 7.8288 107.675 11.7641 110.081C15.5255 112.147 19.7573 113.197 24.045 113.129C27.7141 113.272 31.3404 112.297 34.4472 110.334C37.82 108.216 41.382 104.682 42.9896 102.032C44.5972 99.3831 44.2505 97.6064 43.4939 96.1522C42.7374 94.6979 41.5333 93.5218 38.5765 90.6513C35.6198 87.7807 30.9105 83.2156 28.0042 80.2818C25.0978 77.348 24.0009 76.0455 23.4146 74.079C22.7462 71.816 22.855 69.3934 23.7235 67.1998C24.7602 64.861 26.6777 63.0289 29.057 62.1035C30.2699 61.6267 31.568 61.4064 32.8699 61.4565C34.1717 61.5065 35.4492 61.8258 36.6222 62.3944C39.0557 63.583 41.1487 65.9099 42.8698 67.7435C44.5909 69.5771 45.9463 70.9049 47.2828 72.2454C48.632 70.9113 49.9874 69.5708 51.6959 67.7435C53.4043 65.9162 55.5163 63.583 57.9498 62.3944C59.1228 61.8258 60.4003 61.5065 61.7021 61.4565C63.004 61.4064 64.3021 61.6267 65.515 62.1035C67.8943 63.0289 69.8118 64.861 70.8485 67.1998C71.717 69.3934 71.8258 71.816 71.1574 74.079C70.5711 76.0455 69.4741 77.348 66.5678 80.2818C63.6615 83.2156 58.9459 87.787 55.9954 90.6513C53.045 93.5155 51.8409 94.6853 51.0781 96.1522C50.3152 97.6191 49.9748 99.3831 51.5824 102.032C53.19 104.682 56.7519 108.216 60.1248 110.334C63.2315 112.297 66.8578 113.272 70.527 113.129C74.8147 113.197 79.0465 112.147 82.8078 110.081C86.7432 107.675 89.9715 104.265 92.1635 100.199C93.8735 97.0292 94.699 93.4555 94.5528 89.8546C94.4394 86.788 93.6766 84.2209 92.1509 79.934C90.6252 75.6471 88.3683 69.6467 85.9915 64.032C83.6148 58.4173 81.2381 53.1819 78.7415 48.4588C76.245 43.7356 73.6981 39.5372 70.1613 36.1861C66.7577 32.9795 62.7104 30.5392 58.2902 29.0286C54.3311 27.7134 50.8133 27.5807 47.3018 27.4479Z" fill="#002D4C"/>
<path d="M139.554 92.4156L137.663 86.8831H123.093L121.202 92.4156C121.052 92.8612 120.767 93.2482 120.385 93.5217C120.004 93.7953 119.546 93.9414 119.078 93.9394H115.295C115.074 93.9423 114.857 93.892 114.66 93.7927C114.463 93.6934 114.292 93.548 114.163 93.3688C114.034 93.1897 113.95 92.982 113.917 92.7632C113.885 92.5445 113.906 92.3211 113.977 92.1121L125.577 59.8654C125.739 59.4318 126.03 59.0583 126.409 58.795C126.789 58.5317 127.24 58.3911 127.702 58.3922H132.972C133.432 58.3981 133.88 58.5414 134.259 58.8038C134.637 59.0662 134.929 59.4358 135.097 59.8654L146.646 92.1121C146.718 92.3166 146.741 92.5353 146.712 92.7502C146.683 92.9651 146.604 93.1701 146.481 93.3484C146.358 93.5267 146.195 93.6733 146.004 93.776C145.814 93.8787 145.602 93.9347 145.386 93.9394H141.603C141.147 93.9258 140.706 93.7724 140.34 93.5C139.974 93.2276 139.699 92.8491 139.554 92.4156ZM135.601 80.7372L130.388 65.3474L125.174 80.7372H135.601Z" fill="#002D4C"/>
<path d="M174.391 78.2965V92.1119C174.393 92.3524 174.347 92.5908 174.256 92.8132C174.165 93.0357 174.031 93.2378 173.862 93.4078C173.692 93.5778 173.49 93.7124 173.269 93.8036C173.047 93.8948 172.809 93.9409 172.569 93.9393H169.783C169.543 93.9401 169.306 93.8934 169.085 93.8019C168.863 93.7103 168.662 93.5758 168.493 93.4059C168.323 93.2361 168.189 93.0343 168.098 92.8122C168.007 92.5902 167.96 92.3521 167.961 92.1119V79.618C167.961 76.3174 166.593 73.8262 162.918 73.8262C159.135 73.8262 157.445 76.6209 157.445 79.618V92.1119C157.45 92.5894 157.267 93.0495 156.935 93.3918C156.603 93.7342 156.15 93.9309 155.674 93.9393H152.856C152.38 93.9309 151.926 93.7342 151.594 93.3918C151.263 93.0495 151.079 92.5894 151.084 92.1119V70.0198C151.08 69.7823 151.123 69.5464 151.209 69.3254C151.296 69.1044 151.425 68.9027 151.59 68.7318C151.754 68.561 151.951 68.4243 152.168 68.3296C152.385 68.2349 152.619 68.184 152.856 68.1799H155.693C156.169 68.1882 156.622 68.385 156.954 68.7274C157.286 69.0697 157.469 69.5298 157.464 70.0072V71.3413C158.883 69.2548 161.215 67.5476 164.96 67.5476C171.454 67.5792 174.391 72.8146 174.391 78.2965Z" fill="#002D4C"/>
<path d="M180.266 60.9782C180.271 60.3004 180.476 59.6394 180.856 59.0786C181.235 58.5178 181.772 58.0825 182.398 57.8278C183.025 57.5731 183.712 57.5103 184.374 57.6474C185.036 57.7846 185.642 58.1154 186.116 58.5982C186.591 59.081 186.912 59.694 187.039 60.3598C187.166 61.0255 187.093 61.714 186.83 62.3383C186.566 62.9625 186.125 63.4945 185.56 63.8669C184.995 64.2393 184.333 64.4354 183.657 64.4305C182.753 64.4188 181.889 64.0497 181.254 63.4034C180.619 62.757 180.264 61.8856 180.266 60.9782ZM180.467 92.112V70.0199C180.467 69.7797 180.513 69.5417 180.604 69.3196C180.696 69.0975 180.83 68.8958 180.999 68.7259C181.169 68.5561 181.37 68.4215 181.591 68.33C181.813 68.2384 182.05 68.1917 182.289 68.1926H185.076C185.316 68.1909 185.553 68.237 185.775 68.3282C185.997 68.4195 186.198 68.554 186.368 68.724C186.537 68.894 186.672 69.0961 186.763 69.3186C186.853 69.5411 186.899 69.7794 186.898 70.0199V92.112C186.899 92.3524 186.853 92.5908 186.763 92.8132C186.672 93.0357 186.537 93.2378 186.368 93.4078C186.198 93.5779 185.997 93.7124 185.775 93.8036C185.553 93.8949 185.316 93.941 185.076 93.9393H182.289C182.05 93.9401 181.813 93.8934 181.591 93.8019C181.37 93.7104 181.169 93.5758 180.999 93.4059C180.83 93.2361 180.696 93.0343 180.604 92.8122C180.513 92.5902 180.467 92.3522 180.467 92.112Z" fill="#002D4C"/>
<path d="M229.996 77.8413V92.112C230.001 92.5895 229.817 93.0496 229.485 93.3919C229.154 93.7342 228.7 93.931 228.224 93.9393H225.387C225.148 93.941 224.91 93.8949 224.688 93.8037C224.466 93.7125 224.265 93.5779 224.095 93.4079C223.926 93.2379 223.792 93.0358 223.701 92.8133C223.61 92.5909 223.564 92.3525 223.565 92.112V79.1628C223.565 75.9634 222.248 73.8263 219.259 73.8263C216.271 73.8263 214.701 76.2163 214.701 79.1628V92.112C214.703 92.3525 214.657 92.5909 214.566 92.8133C214.475 93.0358 214.341 93.2379 214.171 93.4079C214.002 93.5779 213.8 93.7125 213.579 93.8037C213.357 93.8949 213.119 93.941 212.879 93.9393H210.093C209.853 93.941 209.615 93.8949 209.394 93.8037C209.172 93.7125 208.97 93.5779 208.801 93.4079C208.631 93.2379 208.497 93.0358 208.406 92.8133C208.315 92.5909 208.269 92.3525 208.271 92.112V79.1628C208.271 75.9634 206.953 73.8263 203.965 73.8263C200.977 73.8263 199.407 76.2163 199.407 79.1628V92.112C199.409 92.3525 199.363 92.5909 199.272 92.8133C199.181 93.0358 199.047 93.2379 198.877 93.4079C198.708 93.5779 198.506 93.7125 198.284 93.8037C198.062 93.8949 197.825 93.941 197.585 93.9393H194.799C194.559 93.941 194.321 93.8949 194.099 93.8037C193.878 93.7125 193.676 93.5779 193.506 93.4079C193.337 93.2379 193.203 93.0358 193.112 92.8133C193.021 92.5909 192.975 92.3525 192.977 92.112V70.0199C192.975 69.7795 193.021 69.5411 193.112 69.3187C193.203 69.0962 193.337 68.8941 193.506 68.7241C193.676 68.5541 193.878 68.4195 194.099 68.3283C194.321 68.237 194.559 68.191 194.799 68.1926H197.617C197.856 68.191 198.094 68.237 198.316 68.3283C198.538 68.4195 198.739 68.5541 198.909 68.7241C199.078 68.8941 199.212 69.0962 199.303 69.3187C199.394 69.5411 199.44 69.7795 199.439 70.0199V70.9304C200.756 69.0335 202.83 67.5793 206.228 67.5793C209.626 67.5793 211.997 69.2043 213.314 71.5943C214.175 70.3356 215.333 69.3102 216.685 68.6096C218.037 67.909 219.541 67.555 221.062 67.5793C226.957 67.5793 229.996 72.3531 229.996 77.8413Z" fill="#002D4C"/>
<path d="M257.086 68.18H259.873C260.112 68.1783 260.35 68.2244 260.572 68.3156C260.794 68.4069 260.995 68.5414 261.165 68.7114C261.334 68.8814 261.468 69.0835 261.559 69.306C261.65 69.5284 261.696 69.7668 261.694 70.0073V92.0994C261.696 92.3398 261.65 92.5782 261.559 92.8006C261.468 93.0231 261.334 93.2252 261.165 93.3952C260.995 93.5652 260.794 93.6998 260.572 93.791C260.35 93.8822 260.112 93.9283 259.873 93.9267H257.086C256.846 93.9275 256.609 93.8808 256.388 93.7893C256.166 93.6977 255.965 93.5632 255.796 93.3933C255.627 93.2235 255.492 93.0217 255.401 92.7996C255.31 92.5775 255.263 92.3396 255.264 92.0994V90.8791C253.644 93.0162 251.059 94.5337 247.068 94.5337C239.119 94.5337 234.561 87.7809 234.561 81.0786C234.561 74.3764 239.119 67.5667 247.068 67.5667C251.065 67.5667 253.65 69.0904 255.264 71.2212V70.0073C255.263 69.7671 255.31 69.5291 255.401 69.307C255.492 69.0849 255.627 68.8831 255.796 68.7133C255.965 68.5434 256.166 68.4089 256.388 68.3173C256.609 68.2258 256.846 68.1791 257.086 68.18ZM255.012 81.0786C255.012 77.0636 252.49 73.7631 248.077 73.7631C243.664 73.7631 241.142 77.1142 241.142 81.0786C241.142 85.0431 243.664 88.3941 248.077 88.3941C252.49 88.3941 254.987 85.0494 254.987 81.0912L255.012 81.0786Z" fill="#002D4C"/>
<path d="M269.593 58.3859H272.43C272.906 58.3942 273.36 58.591 273.692 58.9333C274.024 59.2756 274.207 59.7357 274.202 60.2132V92.112C274.207 92.5895 274.024 93.0496 273.692 93.3919C273.36 93.7343 272.906 93.931 272.43 93.9393H269.593C269.354 93.9402 269.117 93.8935 268.895 93.802C268.674 93.7104 268.473 93.5759 268.303 93.406C268.134 93.2362 268 93.0344 267.908 92.8123C267.817 92.5902 267.771 92.3522 267.771 92.112V60.2132C267.771 59.9732 267.819 59.7356 267.91 59.5139C268.002 59.2922 268.136 59.0907 268.305 58.9211C268.474 58.7514 268.675 58.6168 268.896 58.5249C269.117 58.4331 269.354 58.3859 269.593 58.3859Z" fill="#002D4C"/>
<path d="M319.169 83.5762C319.169 89.1656 315.273 94.5464 305.93 94.5464C300.105 94.5464 294.784 92.4662 292.458 87.9453C292.337 87.7126 292.27 87.4561 292.259 87.1942C292.249 86.9322 292.296 86.6711 292.398 86.4296C292.5 86.1881 292.653 85.972 292.848 85.7969C293.042 85.6217 293.273 85.4917 293.523 85.4162L296.713 84.3982C297.093 84.2681 297.507 84.2725 297.884 84.4105C298.261 84.5485 298.58 84.8119 298.787 85.1569C299.802 86.8894 301.94 88.5649 305.874 88.5649C309.423 88.5649 312.26 87.1929 312.26 84.0947C312.26 80.5918 308.257 80.3326 302.633 78.9099C295.497 77.1332 293.114 73.5797 293.114 68.6542C293.114 61.9457 298.233 57.7346 305.621 57.7346C310.74 57.7346 314.939 59.9666 316.969 64.0575C317.08 64.3014 317.135 64.5668 317.132 64.8347C317.129 65.1026 317.068 65.3666 316.952 65.608C316.835 65.8493 316.668 66.0621 316.461 66.2312C316.253 66.4003 316.012 66.5217 315.752 66.5866L312.562 67.3454C312.184 67.4408 311.785 67.4074 311.428 67.2506C311.071 67.0939 310.776 66.8225 310.589 66.4792C309.776 65.0123 308.067 63.7413 305.268 63.7413C302.381 63.7413 299.903 65.2652 299.903 68.1674C299.903 72.1255 304.411 72.7388 307.702 73.4975C316.137 75.4513 319.169 77.8919 319.169 83.5762Z" fill="#002D4C"/>
<path d="M344.999 68.18H347.779C348.019 68.1783 348.257 68.2244 348.479 68.3155C348.701 68.4067 348.903 68.5411 349.073 68.711C349.243 68.881 349.378 69.083 349.469 69.3055C349.561 69.528 349.608 69.7665 349.607 70.0073V92.0994C349.608 92.3401 349.561 92.5786 349.469 92.8011C349.378 93.0236 349.243 93.2257 349.073 93.3956C348.903 93.5655 348.701 93.7 348.479 93.7911C348.257 93.8823 348.019 93.9283 347.779 93.9267H344.999C344.759 93.9283 344.521 93.8823 344.298 93.7911C344.076 93.7 343.874 93.5655 343.704 93.3956C343.534 93.2257 343.4 93.0236 343.308 92.8011C343.216 92.5786 343.169 92.3401 343.17 92.0994V90.8791C341.55 93.0162 338.972 94.5337 334.975 94.5337C327.025 94.5337 322.467 87.7809 322.467 81.0786C322.467 74.3764 327.025 67.5667 334.975 67.5667C338.978 67.5667 341.556 69.0904 343.17 71.2212V70.0073C343.169 69.7665 343.216 69.528 343.308 69.3055C343.4 69.083 343.534 68.881 343.704 68.711C343.874 68.5411 344.076 68.4067 344.298 68.3155C344.521 68.2244 344.759 68.1783 344.999 68.18ZM342.918 81.0786C342.918 77.0636 340.396 73.7631 335.983 73.7631C331.57 73.7631 329.048 77.1142 329.048 81.0786C329.048 85.0431 331.57 88.3941 335.983 88.3941C340.396 88.3941 342.918 85.0494 342.918 81.0912V81.0786Z" fill="#002D4C"/>
<path d="M373.204 68.1799H376.545C376.764 68.1789 376.979 68.2311 377.172 68.3323C377.366 68.4334 377.532 68.5803 377.656 68.7602C377.78 68.9402 377.859 69.1478 377.885 69.3651C377.911 69.5824 377.884 69.8028 377.806 70.0072L369.497 92.4534C369.342 92.8815 369.06 93.2518 368.69 93.5151C368.319 93.7783 367.877 93.9219 367.423 93.9266H363.47C363.016 93.921 362.575 93.7771 362.204 93.5139C361.834 93.2508 361.552 92.881 361.396 92.4534L353.093 70.0072C353.014 69.8028 352.986 69.582 353.011 69.3641C353.037 69.1462 353.115 68.9379 353.239 68.7575C353.364 68.5771 353.531 68.4301 353.725 68.3294C353.919 68.2287 354.135 68.1773 354.354 68.1799H357.695C358.176 68.1841 358.643 68.3379 359.033 68.6199C359.422 68.9019 359.715 69.2983 359.87 69.7543L365.443 86.4087L371.01 69.7543C371.168 69.2963 371.464 68.8988 371.857 68.6168C372.25 68.3347 372.721 68.1821 373.204 68.1799Z" fill="#002D4C"/>
<path d="M405.716 81.7995C405.709 82.2687 405.521 82.7168 405.19 83.0486C404.859 83.3804 404.412 83.5697 403.944 83.5762H386.57C387.484 86.9842 390.352 88.8116 393.864 88.8116C395.707 88.8195 397.494 88.1721 398.907 86.9842C399.113 86.7837 399.38 86.6594 399.666 86.6319C399.951 86.6043 400.237 86.675 400.477 86.8325L403.364 88.5586C403.54 88.6664 403.689 88.8128 403.8 88.9867C403.911 89.1606 403.982 89.3575 404.006 89.5627C404.03 89.7678 404.008 89.9758 403.94 90.1709C403.873 90.3661 403.762 90.5434 403.617 90.6894C400.994 93.2175 397.482 94.6039 393.845 94.5464C385.34 94.5464 379.717 88.9127 379.717 81.0913C379.717 73.017 385.744 67.5793 392.83 67.5793C400.143 67.5793 406.069 72.7072 405.716 81.7995ZM399.355 78.6001C398.724 75.1984 396.417 73.3205 392.969 73.3205C389.816 73.3205 387.351 75.2996 386.589 78.6001H399.355Z" fill="#002D4C"/>
</g>
<defs>
<clipPath id="clip0_2021_35">
<rect width="406" height="141" fill="white" transform="translate(0 -6)"/>
</clipPath>
</defs>
</svg>
