<svg width="354" height="150" viewBox="0 0 354 150" fill="none" xmlns="http://www.w3.org/2000/svg">
<g clip-path="url(#clip0_2021_11)">
<path d="M72.0589 120.491L70.4099 115.665H57.7175L56.0684 120.491C55.9369 120.88 55.6867 121.218 55.3533 121.456C55.0198 121.695 54.62 121.822 54.2105 121.82H50.9453C50.7531 121.823 50.5631 121.779 50.3914 121.692C50.2197 121.606 50.0713 121.479 49.959 121.322C49.8468 121.166 49.7739 120.984 49.7465 120.794C49.7192 120.603 49.7382 120.408 49.802 120.226L59.9053 92.1011C60.0459 91.7225 60.2989 91.3963 60.6302 91.1665C60.9614 90.9367 61.355 90.8145 61.7577 90.8162H66.3476C66.7491 90.8198 67.1403 90.9442 67.4705 91.1733C67.8008 91.4024 68.0549 91.7256 68.2001 92.1011L78.2649 120.226C78.3275 120.405 78.3471 120.595 78.322 120.783C78.2969 120.97 78.2279 121.149 78.1206 121.304C78.0133 121.46 77.8709 121.588 77.7048 121.677C77.5388 121.767 77.354 121.816 77.1655 121.82H73.9114C73.5026 121.822 73.1036 121.694 72.7711 121.456C72.4386 121.217 72.1894 120.879 72.0589 120.491ZM68.6179 110.311L64.0719 96.8934L59.526 110.311H68.6179Z" fill="#F4F4F4"/>
<path d="M102.419 108.182V120.226C102.421 120.436 102.381 120.644 102.301 120.838C102.222 121.032 102.105 121.208 101.957 121.356C101.809 121.505 101.634 121.622 101.44 121.702C101.247 121.781 101.04 121.821 100.831 121.82H98.4065C98.1975 121.821 97.9903 121.781 97.7969 121.702C97.6035 121.622 97.4278 121.505 97.28 121.356C97.1322 121.208 97.0152 121.032 96.9359 120.838C96.8566 120.644 96.8165 120.436 96.8179 120.226V109.335C96.8179 106.456 95.6251 104.289 92.4479 104.289C89.1497 104.289 87.6821 106.721 87.6821 109.335V120.226C87.6865 120.643 87.5266 121.044 87.2372 121.342C86.9478 121.641 86.5525 121.813 86.1375 121.82H83.6639C83.2488 121.813 82.8535 121.641 82.5641 121.342C82.2747 121.044 82.1148 120.643 82.1192 120.226V100.969C82.1148 100.552 82.2747 100.151 82.5641 99.8525C82.8535 99.5539 83.2488 99.3823 83.6639 99.375H86.1375C86.5525 99.3823 86.9478 99.5539 87.2372 99.8525C87.5266 100.151 87.6865 100.552 87.6821 100.969V102.116C88.9189 100.301 90.9472 98.8401 94.2124 98.8401C99.8577 98.8401 102.419 103.401 102.419 108.182Z" fill="#F4F4F4"/>
<path d="M107.537 93.0882C107.541 92.497 107.72 91.9205 108.051 91.4314C108.382 90.9423 108.851 90.5627 109.397 90.3405C109.943 90.1183 110.542 90.0635 111.119 90.1832C111.696 90.3028 112.225 90.5914 112.639 91.0124C113.052 91.4335 113.332 91.9682 113.443 92.5488C113.553 93.1295 113.49 93.73 113.26 94.2745C113.031 94.8189 112.646 95.2829 112.153 95.6077C111.661 95.9325 111.084 96.1035 110.494 96.0992C109.706 96.089 108.953 95.7671 108.399 95.2034C107.845 94.6397 107.536 93.8796 107.537 93.0882ZM107.713 120.226V100.969C107.712 100.759 107.753 100.552 107.832 100.358C107.912 100.164 108.029 99.9882 108.177 99.8401C108.324 99.692 108.5 99.5746 108.693 99.4948C108.886 99.4149 109.093 99.3742 109.302 99.3749H111.731C111.94 99.3742 112.147 99.4149 112.34 99.4948C112.533 99.5746 112.709 99.692 112.856 99.8401C113.004 99.9882 113.121 100.164 113.2 100.358C113.28 100.552 113.321 100.759 113.32 100.969V120.226C113.321 120.436 113.28 120.643 113.2 120.837C113.121 121.03 113.004 121.206 112.856 121.355C112.709 121.503 112.533 121.62 112.34 121.7C112.147 121.78 111.94 121.821 111.731 121.82H109.302C109.093 121.821 108.886 121.78 108.693 121.7C108.5 121.62 108.324 121.503 108.177 121.355C108.029 121.206 107.912 121.03 107.832 120.837C107.753 120.643 107.712 120.436 107.713 120.226Z" fill="#F4F4F4"/>
<path d="M150.867 107.785V120.226C150.871 120.642 150.711 121.044 150.422 121.342C150.133 121.641 149.737 121.812 149.322 121.82H146.849C146.64 121.82 146.433 121.78 146.24 121.7C146.047 121.62 145.871 121.503 145.724 121.355C145.576 121.206 145.459 121.03 145.379 120.837C145.3 120.643 145.259 120.435 145.26 120.226V108.937C145.26 106.147 144.117 104.288 141.511 104.288C138.906 104.288 137.537 106.368 137.537 108.937V120.226C137.538 120.436 137.498 120.644 137.419 120.838C137.34 121.032 137.223 121.208 137.075 121.356C136.927 121.504 136.751 121.622 136.558 121.701C136.364 121.781 136.157 121.821 135.948 121.82H133.524C133.315 121.821 133.108 121.781 132.914 121.701C132.721 121.622 132.545 121.504 132.397 121.356C132.25 121.208 132.133 121.032 132.053 120.838C131.974 120.644 131.934 120.436 131.935 120.226V108.937C131.935 106.147 130.787 104.288 128.181 104.288C125.576 104.288 124.212 106.368 124.212 108.937V120.226C124.213 120.435 124.172 120.643 124.093 120.837C124.013 121.03 123.896 121.206 123.749 121.355C123.601 121.503 123.426 121.62 123.233 121.7C123.039 121.78 122.833 121.82 122.624 121.82H120.194C119.985 121.82 119.778 121.78 119.585 121.7C119.392 121.62 119.217 121.503 119.069 121.355C118.921 121.206 118.804 121.03 118.725 120.837C118.645 120.643 118.605 120.435 118.605 120.226V100.969C118.605 100.759 118.645 100.552 118.725 100.358C118.804 100.164 118.921 99.9882 119.069 99.84C119.217 99.6919 119.392 99.5745 119.585 99.4947C119.778 99.4149 119.985 99.3741 120.194 99.3749H122.624C122.833 99.3741 123.039 99.4149 123.233 99.4947C123.426 99.5745 123.601 99.6919 123.749 99.84C123.896 99.9882 124.013 100.164 124.093 100.358C124.172 100.552 124.213 100.759 124.212 100.969V101.763C125.361 100.108 127.17 98.8399 130.127 98.8399C133.172 98.8399 135.157 100.257 136.305 102.342C137.054 101.244 138.063 100.349 139.241 99.7378C140.419 99.1267 141.73 98.8182 143.056 98.8399C148.223 98.8399 150.867 103.004 150.867 107.785Z" fill="#F4F4F4"/>
<path d="M174.504 99.375H176.934C177.142 99.3743 177.349 99.415 177.542 99.4948C177.736 99.5747 177.911 99.692 178.059 99.8402C178.206 99.9883 178.323 100.164 178.403 100.358C178.482 100.552 178.523 100.759 178.522 100.969V120.226C178.523 120.436 178.482 120.643 178.403 120.837C178.323 121.031 178.206 121.207 178.059 121.355C177.911 121.503 177.736 121.62 177.542 121.7C177.349 121.78 177.142 121.821 176.934 121.82H174.504C174.295 121.821 174.088 121.781 173.894 121.702C173.701 121.622 173.525 121.505 173.377 121.356C173.23 121.208 173.113 121.032 173.033 120.838C172.954 120.644 172.914 120.436 172.915 120.226V119.162C171.503 121.02 169.254 122.349 165.769 122.349C158.843 122.349 154.869 116.465 154.869 110.619C154.869 104.774 158.843 98.8401 165.769 98.8401C169.26 98.8401 171.508 100.169 172.915 102.028V100.969C172.914 100.759 172.954 100.551 173.033 100.357C173.113 100.163 173.23 99.9868 173.377 99.8385C173.525 99.6902 173.701 99.5729 173.894 99.4933C174.088 99.4138 174.295 99.3735 174.504 99.375ZM172.696 110.619C172.696 107.123 170.497 104.244 166.649 104.244C162.801 104.244 160.602 107.167 160.602 110.619C160.602 114.072 162.801 116.994 166.649 116.994C170.497 116.994 172.674 114.072 172.674 110.619H172.696Z" fill="#F4F4F4"/>
<path d="M185.382 90.8272H187.85C188.265 90.8344 188.66 91.0061 188.949 91.3046C189.239 91.6032 189.399 92.0045 189.394 92.4209V120.226C189.399 120.642 189.239 121.044 188.949 121.342C188.66 121.641 188.265 121.813 187.85 121.82H185.382C185.173 121.821 184.965 121.781 184.772 121.701C184.579 121.622 184.403 121.505 184.255 121.356C184.107 121.208 183.99 121.032 183.911 120.838C183.832 120.644 183.792 120.436 183.793 120.226V92.4209C183.792 92.2114 183.833 92.0038 183.912 91.8101C183.992 91.6164 184.109 91.4405 184.257 91.2923C184.404 91.1442 184.58 91.0268 184.773 90.947C184.966 90.8671 185.173 90.8264 185.382 90.8272Z" fill="#F4F4F4"/>
<path d="M228.584 112.787C228.584 117.656 225.187 122.349 217.04 122.349C211.967 122.349 207.333 120.535 205.299 116.597C205.195 116.394 205.137 116.171 205.128 115.942C205.12 115.714 205.161 115.487 205.25 115.277C205.338 115.066 205.472 114.878 205.641 114.725C205.81 114.572 206.01 114.458 206.228 114.391L209.009 113.509C209.341 113.396 209.701 113.4 210.03 113.52C210.359 113.64 210.637 113.87 210.818 114.171C211.703 115.676 213.566 117.138 216.996 117.138C220.086 117.138 222.559 115.941 222.559 113.244C222.559 110.189 219.069 109.963 214.171 108.728C207.948 107.178 205.876 104.079 205.876 99.783C205.876 93.9374 210.334 90.2646 216.776 90.2646C221.234 90.2646 224.895 92.2113 226.671 95.7794C226.767 95.9917 226.816 96.2228 226.814 96.4562C226.811 96.6895 226.758 96.9196 226.657 97.13C226.557 97.3404 226.411 97.526 226.231 97.6738C226.051 97.8216 225.841 97.9279 225.615 97.9852L222.834 98.647C222.505 98.7297 222.158 98.701 221.847 98.5654C221.536 98.4297 221.278 98.1948 221.114 97.897C220.404 96.6121 218.915 95.5036 216.48 95.5036C213.962 95.5036 211.802 96.8327 211.802 99.3639C211.802 102.816 215.727 103.346 218.596 104.013C225.94 105.706 228.584 107.829 228.584 112.787Z" fill="#F4F4F4"/>
<path d="M251.092 99.375H253.516C253.725 99.3735 253.932 99.4138 254.126 99.4933C254.319 99.5729 254.495 99.6902 254.643 99.8385C254.79 99.9868 254.907 100.163 254.987 100.357C255.066 100.551 255.106 100.759 255.105 100.969V120.226C255.106 120.436 255.066 120.644 254.987 120.838C254.907 121.032 254.79 121.208 254.643 121.356C254.495 121.505 254.319 121.622 254.126 121.702C253.932 121.781 253.725 121.821 253.516 121.82H251.092C250.883 121.821 250.676 121.781 250.482 121.702C250.289 121.622 250.113 121.505 249.965 121.356C249.818 121.208 249.701 121.032 249.621 120.838C249.542 120.644 249.502 120.436 249.503 120.226V119.162C248.091 121.02 245.837 122.349 242.357 122.349C235.426 122.349 231.457 116.465 231.457 110.619C231.457 104.774 235.426 98.8401 242.357 98.8401C245.842 98.8401 248.096 100.169 249.503 102.028V100.969C249.502 100.759 249.542 100.551 249.621 100.357C249.701 100.163 249.818 99.9868 249.965 99.8385C250.113 99.6902 250.289 99.5729 250.482 99.4933C250.676 99.4138 250.883 99.3735 251.092 99.375ZM249.278 110.619C249.278 107.123 247.079 104.244 243.231 104.244C239.384 104.244 237.185 107.167 237.185 110.619C237.185 114.072 239.384 116.994 243.231 116.994C247.079 116.994 249.261 114.072 249.261 110.619H249.278Z" fill="#F4F4F4"/>
<path d="M275.647 99.3751H278.56C278.751 99.3728 278.939 99.4176 279.109 99.5054C279.278 99.5933 279.423 99.7215 279.532 99.8788C279.64 100.036 279.709 100.218 279.731 100.408C279.753 100.598 279.729 100.791 279.659 100.969L272.42 120.535C272.284 120.908 272.038 121.231 271.715 121.46C271.392 121.689 271.007 121.815 270.612 121.82H267.17C266.774 121.816 266.389 121.691 266.066 121.461C265.743 121.231 265.497 120.908 265.362 120.535L258.123 100.969C258.053 100.791 258.029 100.598 258.051 100.408C258.073 100.218 258.142 100.036 258.25 99.8788C258.359 99.7215 258.504 99.5933 258.673 99.5054C258.843 99.4176 259.031 99.3728 259.222 99.3751H262.135C262.554 99.3788 262.962 99.5129 263.301 99.7588C263.641 100.005 263.896 100.351 264.032 100.748L268.885 115.268L273.739 100.748C273.875 100.349 274.132 100.002 274.474 99.7556C274.816 99.5095 275.226 99.3765 275.647 99.3751Z" fill="#F4F4F4"/>
<path d="M304 111.237C303.996 111.647 303.832 112.038 303.543 112.328C303.254 112.618 302.864 112.782 302.456 112.787H287.323C288.114 115.754 290.588 117.347 293.677 117.347C295.285 117.355 296.843 116.79 298.075 115.754C298.256 115.584 298.488 115.48 298.734 115.456C298.98 115.432 299.228 115.49 299.438 115.621L301.956 117.127C302.109 117.221 302.239 117.349 302.335 117.5C302.432 117.652 302.494 117.824 302.515 118.003C302.536 118.181 302.517 118.363 302.458 118.533C302.399 118.703 302.302 118.858 302.175 118.985C299.891 121.189 296.83 122.399 293.661 122.349C286.245 122.349 281.348 117.436 281.348 110.619C281.348 103.577 286.597 98.8401 292.776 98.8401C299.147 98.8401 304.314 103.301 304 111.237ZM298.443 108.452C297.893 105.485 295.881 103.842 292.88 103.842C290.132 103.842 287.982 105.574 287.323 108.452H298.443Z" fill="#F4F4F4"/>
<path fill-rule="evenodd" clip-rule="evenodd" d="M176.972 0C173.91 0.115809 170.848 0.231618 167.391 1.37868C163.532 2.69549 159.997 4.82382 157.024 7.62132C153.973 10.5441 151.725 14.2059 149.548 18.3198C147.371 22.4338 145.277 26.9945 143.232 31.8915C141.187 36.7886 139.192 42.0165 137.867 45.7555C136.542 49.4945 135.872 51.7279 135.773 54.4026C135.643 57.541 136.361 60.6562 137.851 63.4191C139.762 66.9641 142.577 69.9366 146.008 72.0331C149.286 73.8346 152.974 74.7505 156.71 74.6912C159.908 74.8147 163.068 73.965 165.775 72.2537C168.716 70.4062 171.821 67.329 173.218 65.0184C174.614 62.7077 174.317 61.1581 173.657 59.8897C172.998 58.6213 171.948 57.5956 169.375 55.0974C166.803 52.5993 162.691 48.6176 160.157 46.0588C157.623 43.5 156.666 42.364 156.155 40.6489C155.575 38.6766 155.67 36.5664 156.425 34.6544C157.331 32.6174 159.002 31.0219 161.075 30.2151C162.133 29.7992 163.264 29.6071 164.399 29.6508C165.535 29.6944 166.648 29.9729 167.671 30.4687C169.787 31.5 171.612 33.5294 173.113 35.1232C174.614 36.7169 175.796 37.8805 176.961 39.0551C178.143 37.886 179.319 36.7224 180.809 35.1232C182.298 33.5239 184.134 31.5 186.251 30.4687C187.273 29.9729 188.387 29.6944 189.522 29.6508C190.658 29.6071 191.789 29.7992 192.847 30.2151C194.92 31.0219 196.591 32.6174 197.497 34.6544C198.249 36.5669 198.344 38.6763 197.767 40.6489C197.255 42.364 196.293 43.5 193.765 46.0588C191.236 48.6176 187.125 52.5993 184.547 55.0974C181.969 57.5956 180.93 58.6158 180.265 59.8897C179.599 61.1636 179.303 62.7077 180.704 65.0184C182.106 67.329 185.206 70.4062 188.147 72.2537C190.854 73.965 194.014 74.8147 197.211 74.6912C200.948 74.7505 204.636 73.8346 207.914 72.0331C211.345 69.938 214.158 66.965 216.066 63.4191C217.559 60.6575 218.279 57.5417 218.149 54.4026C218.05 51.7279 217.385 49.489 216.055 45.7555C214.725 42.0221 212.757 36.7886 210.69 31.8915C208.623 26.9945 206.551 22.4338 204.374 18.3198C202.197 14.2059 199.949 10.5441 196.893 7.62132C193.922 4.82326 190.389 2.6948 186.531 1.37868C183.101 0.231618 180.039 0.115809 176.972 0Z" fill="#F4F4F4"/>
</g>
<defs>
<clipPath id="clip0_2021_11">
<rect width="354" height="150" fill="white"/>
</clipPath>
</defs>
</svg>
