<svg width="80" height="43" fill="none" xmlns="http://www.w3.org/2000/svg"><g clip-path="url(#a)" fill="#175EA8"><path d="M64.465 16.938c2.95-.244 14.214 3.03 15.133 7.19.889 4.022-8.29 10.327-7.35 12.855.578 1.559 3.31.794 5.187.775 3.363-.035.676 5.368-7.609 5.166-4.294-.105-8.816-.59-9.007-4.415-.254-5.14 9.914-9.779 8.634-11.953-.523-.887-2.662-.8-5.04-.868-6.57-.19-3.955-8.419.052-8.75z"/><path d="M50.217 14.864c-2.84 2.277-4.331 9.945-4.646 14.025-.391 5.083 1.028 12.149 7.76 13.763 5.823 1.397 7.916-1.885 5.507-3.12-3.386-1.739-4.29-4.39-4.176-7.676.041-1.176.36-2.104 1.317-2.044 2.364.146 4.876-.17 4.76-3.52-.071-2.1-3.44-.52-4.274-1.805-.793-1.222 2.675-5.464 1.507-7.588-.82-1.51-6.067-3.388-7.755-2.035zM17.637 29.073c2.005-.485 3.667-1.026 5.047-1.59.026-.011.05-.024.075-.035.866-4.574 4.2-8.753 8.955-10.405 1.259-5.593-.92-11.66-6.42-14.658C21.956.479 17.707-.24 13.099.674 2.17 2.84-2.806 13.804 1.599 27.21 4.958 37.44 12.94 44.513 16.6 42.675c4.535-2.277-9.244-11.114 1.036-13.602z"/><path d="M34.894 34.82c.78.125 2.401.287 3.644.17 2.856-.128 5.038-1.38 6.41-3.167-.325-3.02-.016-6.25.574-9.13-.984-1.752-2.646-3.303-5.071-4.325-3.346-1.302-8.46-1.264-12.046 1.504-3.808 2.94-5.838 7.244-5.283 11.515.66 6.081 4.545 8.741 6.173 9.733 2.345 1.431 5.637 2.101 8.837 1.763 2.984-.39 4.42-1.55 4.986-2.202.907-1.046.778-2.087.44-2.559-.52-.722-1.256-.437-2.554-.192-3.204.601-5.001-.413-5.726-1.007-1.344-1.102-1.317-2.254-.384-2.103z"/></g><defs><clipPath id="a"><path fill="#fff" transform="translate(0 .28)" d="M0 0h80v42.712H0z"/></clipPath></defs></svg>